<?xml version="1.0" encoding="UTF-8"?>
<svg version="1.1" xmlns="http://www.w3.org/2000/svg" width="500" height="500">
<path d="M0 0 C165 0 330 0 500 0 C500 165 500 330 500 500 C335 500 170 500 0 500 C0 335 0 170 0 0 Z " fill="#FEFEFF" transform="translate(0,0)"/>
<path d="M0 0 C0.87785156 -0.01675781 1.75570312 -0.03351563 2.66015625 -0.05078125 C3.41167969 0.06910156 4.16320312 0.18898437 4.9375 0.3125 C6.91067076 3.27225614 7.38522778 4.78158635 8.015625 8.1875 C8.20366699 9.16340088 8.39170898 10.13930176 8.58544922 11.14477539 C8.78412598 12.19012451 8.98280273 13.23547363 9.1875 14.3125 C12.29894078 29.84759566 16.53819265 44.30790047 23.6171875 58.50390625 C24.9375 61.3125 24.9375 61.3125 24.9375 63.3125 C25.5975 63.3125 26.2575 63.3125 26.9375 63.3125 C27.30875 61.95125 27.30875 61.95125 27.6875 60.5625 C29.05446204 57.0083987 29.77102372 55.42348418 32.9375 53.3125 C37.05747156 52.63721921 40.63331937 52.77174218 44.5 54.375 C45.9375 56.3125 45.9375 56.3125 45.9375 63.3125 C54.3525 62.8175 54.3525 62.8175 62.9375 62.3125 C61.65875 60.765625 60.38 59.21875 59.0625 57.625 C55.1936846 52.90250233 51.45263926 48.10114169 47.75830078 43.24169922 C43.98822956 38.31228341 40.00795047 33.58136392 35.96875 28.87109375 C32.58449831 24.60823826 31.47072977 21.60399239 31.62109375 16.2109375 C31.9375 14.3125 31.9375 14.3125 33.625 11.9375 C38.56025554 8.46948259 44.06790357 7.53792207 49.875 6.375 C51.58084558 6.02791541 53.28657401 5.68025459 54.9921875 5.33203125 C55.83104492 5.1613916 56.66990234 4.99075195 57.53417969 4.81494141 C59.67897234 4.36654814 61.81241412 3.88816175 63.9453125 3.38671875 C78.76433488 -0.04934029 78.76433488 -0.04934029 86.1484375 1.89453125 C87.9375 3.3125 87.9375 3.3125 88.94921875 6.52734375 C88.93505983 11.10067566 87.46914734 13.41236844 84.75 16.875 C83.94358062 17.95931591 83.13758859 19.04394977 82.33203125 20.12890625 C81.14673828 21.70478516 81.14673828 21.70478516 79.9375 23.3125 C79.26332031 24.42496094 78.58914062 25.53742188 77.89453125 26.68359375 C75.9375 29.3125 75.9375 29.3125 73.8671875 29.96875 C68.15972222 29.53472222 68.15972222 29.53472222 65.9375 27.3125 C65.60416667 21.97916667 65.60416667 21.97916667 66.9375 19.3125 C65.37384416 19.59790514 63.81161566 19.89113498 62.25 20.1875 C60.94482422 20.43113281 60.94482422 20.43113281 59.61328125 20.6796875 C56.91297329 21.31830048 54.48433238 22.22034485 51.9375 23.3125 C52.69933594 24.12332031 53.46117187 24.93414062 54.24609375 25.76953125 C59.96696134 31.89251644 65.47468429 38.0902938 70.72265625 44.62890625 C73.06326787 47.46488541 75.5084021 50.17102845 78 52.875 C91.10898773 67.23343812 91.10898773 67.23343812 92.25 72.125 C91.9375 75.3125 91.9375 75.3125 90.1875 78.25 C85.49681395 81.22678153 81.35029713 80.85689052 75.9375 80.3125 C75.256875 80.14169922 74.57625 79.97089844 73.875 79.79492188 C69.64572168 79.1003529 65.4955065 79.25099413 61.21875 79.3203125 C59.29818233 79.33782446 57.37760908 79.35473315 55.45703125 79.37109375 C52.44173689 79.40207785 49.42672257 79.43766522 46.41162109 79.48388672 C43.49312852 79.5262527 40.57496619 79.54966921 37.65625 79.5703125 C36.30762878 79.59824387 36.30762878 79.59824387 34.9317627 79.6267395 C30.07434791 79.64661085 26.92025349 79.43520068 22.9375 76.3125 C22.37417969 76.79589844 21.81085938 77.27929688 21.23046875 77.77734375 C17.31624909 80.39793715 13.47237483 80.13519853 8.9375 79.3125 C5.62220652 77.69920501 2.84548669 75.56285013 -0.0625 73.3125 C-1.53274736 72.29943203 -3.01198662 71.29928782 -4.5 70.3125 C-5.23476562 69.82265625 -5.96953125 69.3328125 -6.7265625 68.828125 C-12.01709116 65.3954743 -17.38447965 62.06705449 -23.0625 59.3125 C-23.371875 60.4571875 -23.371875 60.4571875 -23.6875 61.625 C-26.5155937 69.20943311 -29.84736451 77.12772142 -37.0625 81.3125 C-39.870085 81.68887915 -42.20995184 81.55840932 -45.0625 81.3125 C-46.250589 72.82615 -41.98076908 66.51262045 -38.0625 59.3125 C-36.47048762 56.33791453 -34.89033852 53.35712413 -33.3125 50.375 C-32.89540771 49.58963867 -32.47831543 48.80427734 -32.04858398 47.99511719 C-27.65686392 39.66385115 -23.62673646 31.1669476 -19.60546875 22.65234375 C-8.88684439 0.03926441 -8.88684439 0.03926441 0 0 Z " fill="#45A6FF" transform="translate(159.0625,209.6875)"/>
<path d="M0 0 C15.96394448 5.8027814 31.90676168 11.66474701 47.81192017 17.62689209 C49.48040442 18.25116613 51.14982297 18.87294872 52.82015991 19.49224854 C55.17047172 20.36435384 57.5172208 21.24543936 59.86328125 22.12890625 C60.57231598 22.38993637 61.28135071 22.65096649 62.01187134 22.91990662 C66.88582109 24.77164217 66.88582109 24.77164217 68 27 C64.00586538 28.68095796 60.00459793 30.34412708 56 32 C54.86691406 32.46921875 53.73382813 32.9384375 52.56640625 33.421875 C44.60408472 36.66610677 36.56799507 39.58618403 28.43725586 42.38085938 C21.88242212 44.64850483 15.46522196 47.16201898 9.06640625 49.8359375 C6.35446577 50.86543847 3.85608701 51.54089069 1 52 C1.41020877 50.68546734 1.82868253 49.37351447 2.25 48.0625 C2.48203125 47.33160156 2.7140625 46.60070312 2.953125 45.84765625 C4.43754898 41.80980148 6.22134467 37.91549724 8 34 C6.80375 34.15855469 5.6075 34.31710938 4.375 34.48046875 C-5.24051094 35.74718835 -14.85829421 36.98826775 -24.484375 38.171875 C-27.90629889 38.5933542 -31.32817029 39.01525692 -34.75 39.4375 C-35.61115417 39.54366638 -36.47230835 39.64983276 -37.35955811 39.75921631 C-49.57187128 41.26927803 -61.75041095 42.90759892 -73.90527344 44.83178711 C-78.65139924 45.57158812 -83.17725215 46.22220852 -88 46 C-82.97210761 40.45269724 -76.82866885 36.71510157 -70.59765625 32.640625 C-69.76621094 32.08632812 -68.93476563 31.53203125 -68.078125 30.9609375 C-67.31918945 30.46384277 -66.56025391 29.96674805 -65.77832031 29.45458984 C-63.71312977 28.02956727 -63.71312977 28.02956727 -63 25 C-64.13598633 24.23538452 -64.13598633 24.23538452 -65.29492188 23.45532227 C-68.09218531 21.57018188 -70.88735969 19.68202435 -73.68115234 17.79174805 C-74.89288746 16.97281029 -76.10545268 16.15509943 -77.31884766 15.33862305 C-79.05849164 14.16773613 -80.79514443 12.99253112 -82.53125 11.81640625 C-83.57861328 11.10943604 -84.62597656 10.40246582 -85.70507812 9.67407227 C-86.46240234 9.12162842 -87.21972656 8.56918457 -88 8 C-88 7.67 -88 7.34 -88 7 C-79.190845 7.62474122 -70.49024305 8.68556955 -61.75 9.9375 C-52.25744683 11.28407038 -42.75952656 12.55227747 -33.24377441 13.72305298 C-29.05768693 14.23973792 -24.87268916 14.76516006 -20.6875 15.2890625 C-18.91667106 15.51045178 -17.14583771 15.73180583 -15.375 15.953125 C-13.58333333 16.17708333 -11.79166667 16.40104167 -10 16.625 C-9.07960938 16.74004883 -8.15921875 16.85509766 -7.2109375 16.97363281 C-6.29570312 17.08803711 -5.38046875 17.20244141 -4.4375 17.3203125 C-3.55489502 17.43063812 -2.67229004 17.54096375 -1.76293945 17.65463257 C1.82470703 18.10308838 5.41235352 18.55154419 9 19 C8.72736328 18.49549316 8.45472656 17.99098633 8.17382812 17.47119141 C6.94492214 15.19141326 5.72239626 12.9082747 4.5 10.625 C4.07074219 9.8309375 3.64148438 9.036875 3.19921875 8.21875 C2.79316406 7.45820313 2.38710938 6.69765625 1.96875 5.9140625 C1.59169922 5.2123291 1.21464844 4.5105957 0.82617188 3.78759766 C0 2 0 2 0 0 Z " fill="#44A6FF" transform="translate(277,149)"/>
<path d="M0 0 C0.99386719 0.02707031 1.98773438 0.05414063 3.01171875 0.08203125 C3.77097656 0.11683594 4.53023438 0.15164062 5.3125 0.1875 C6.94884636 5.33504063 8.42539405 10.47246559 9.56640625 15.75390625 C13.0360191 31.77088631 17.70441534 47.69657239 25.40917969 62.26049805 C26.97790938 65.60698006 27.25184617 68.6714751 26.3125 72.1875 C23.62851257 76.06031882 20.46484671 78.57953194 15.90625 79.8671875 C8.39031008 80.461803 3.94834686 76.66542006 -1.6875 72.1875 C-11.5550831 64.28320632 -11.5550831 64.28320632 -22.6875 60.1875 C-23.20699219 61.21230469 -23.72648437 62.23710937 -24.26171875 63.29296875 C-24.96564996 64.65390243 -25.67010498 66.01456527 -26.375 67.375 C-26.88450195 68.38530273 -26.88450195 68.38530273 -27.40429688 69.41601562 C-29.64974753 73.71804725 -32.04335721 76.89100968 -35.6875 80.1875 C-36.1825 80.6825 -36.1825 80.6825 -36.6875 81.1875 C-38.5 81.3203125 -38.5 81.3203125 -40.6875 81.3125 C-41.409375 81.31507813 -42.13125 81.31765625 -42.875 81.3203125 C-44.6875 81.1875 -44.6875 81.1875 -45.6875 80.1875 C-46.15601812 75.19393872 -45.0255715 72.19963002 -42.6875 67.8203125 C-42.37611588 67.22836594 -42.06473175 66.63641937 -41.74391174 66.02653503 C-40.73599727 64.11585706 -39.71169166 62.21449342 -38.6875 60.3125 C-37.98938688 58.99318055 -37.29269545 57.67310786 -36.59741211 56.35229492 C-35.23753775 53.77086389 -33.87289583 51.19207136 -32.50341797 48.61572266 C-30.37543689 44.59836445 -28.28606967 40.56463408 -26.25 36.5 C-25.94916504 35.90203613 -25.64833008 35.30407227 -25.33837891 34.68798828 C-23.28525515 30.54678919 -21.43087087 26.33437972 -19.60009766 22.09082031 C-13.78030529 8.61081183 -13.78030529 8.61081183 -8.6875 3.1875 C-8.254375 2.63320312 -7.82125 2.07890625 -7.375 1.5078125 C-4.92657494 -0.4078534 -3.05792074 -0.10792661 0 0 Z " fill="#44A6FF" transform="translate(297.6875,209.8125)"/>
<path d="M0 0 C1.36675463 0.03881517 2.73363008 0.07356413 4.10058594 0.10449219 C6.11854792 0.15030074 8.13619751 0.20927131 10.15380859 0.26855469 C11.92111328 0.31568604 11.92111328 0.31568604 13.72412109 0.36376953 C17.09301416 0.68881196 19.87311302 1.48664214 23.02880859 2.68261719 C22.90930539 8.41877109 21.34126781 11.25587459 17.42724609 15.39355469 C8.695903 23.72672578 -0.77040626 31.21406708 -10.30322266 38.60058594 C-14.2153023 41.65349728 -14.15072459 42.48719422 -14.78369141 47.43261719 C-16.21129785 56.97448672 -17.7236817 66.81655536 -24.97119141 73.68261719 C-28.22422184 75.30913241 -31.36344742 74.79714874 -34.97119141 74.68261719 C-35.97119141 73.68261719 -35.97119141 73.68261719 -36.06884766 70.52246094 C-36.05144531 68.59080078 -36.05144531 68.59080078 -36.03369141 66.62011719 C-36.02466797 65.32976562 -36.01564453 64.03941406 -36.00634766 62.70996094 C-35.99474609 61.7109375 -35.98314453 60.71191406 -35.97119141 59.68261719 C-36.77556641 59.70324219 -37.57994141 59.72386719 -38.40869141 59.74511719 C-40.97119141 59.68261719 -40.97119141 59.68261719 -41.97119141 58.68261719 C-41.97119141 54.99406976 -41.93527576 52.70450036 -39.34228516 49.95605469 C-38.70419922 49.32957031 -38.06611328 48.70308594 -37.40869141 48.05761719 C-31.76647798 41.42311265 -33.29832515 32.17571613 -33.77734375 23.98168945 C-34.01350636 21.18075334 -34.46215358 18.44596541 -34.97119141 15.68261719 C-35.89802067 6.87773914 -35.89802067 6.87773914 -32.59619141 2.62011719 C-24.47794759 -3.37191991 -9.78085885 -0.28927631 0 0 Z " fill="#44A6FF" transform="translate(364.97119140625,213.3173828125)"/>
<path d="M0 0 C2.20703125 0.05859375 2.20703125 0.05859375 4.8125 0.4375 C7.87300893 0.82998602 9.89522402 1.02229276 12.9375 0.375 C15 0 15 0 16.8125 1.25 C18 3 18 3 18 6 C15.69 6 13.38 6 11 6 C11 6.66 11 7.32 11 8 C12.98 7.67 14.96 7.34 17 7 C17 7.66 17 8.32 17 9 C11.49128368 10.12678288 11.49128368 10.12678288 9.0625 9.5 C5.93603368 8.74206877 3.13174451 9.4579673 0 10 C-2.14915785 6.77626323 -2.38286803 5.73296326 -2 2 C-1.34 1.34 -0.68 0.68 0 0 Z " fill="#F3F9FF" transform="translate(268,324)"/>
<path d="M0 0 C1.670625 0.061875 1.670625 0.061875 3.375 0.125 C3.40186553 2.10409398 3.42133375 4.08328971 3.4375 6.0625 C3.44910156 7.16464844 3.46070313 8.26679688 3.47265625 9.40234375 C3.375 12.125 3.375 12.125 2.375 13.125 C0.04202567 13.16592937 -2.29205225 13.16741723 -4.625 13.125 C-4.955 12.465 -5.285 11.805 -5.625 11.125 C-3.315 11.125 -1.005 11.125 1.375 11.125 C1.375 10.465 1.375 9.805 1.375 9.125 C-0.0790625 9.1559375 -0.0790625 9.1559375 -1.5625 9.1875 C-4.625 9.125 -4.625 9.125 -5.625 8.125 C-5.8125 5.1875 -5.8125 5.1875 -5.625 2.125 C-3.625 0.125 -3.625 0.125 0 0 Z " fill="#82C3FF" transform="translate(187.625,323.875)"/>
<path d="M0 0 C0.66 0 1.32 0 2 0 C2 4.62 2 9.24 2 14 C-5 14 -5 14 -7 12.8125 C-8 11 -8 11 -7.8125 8.4375 C-7 6 -7 6 -5 4 C-3.68 4 -2.36 4 -1 4 C-0.67 2.68 -0.34 1.36 0 0 Z " fill="#66B6FF" transform="translate(350,320)"/>
<path d="M0 0 C6.0546875 -0.1953125 6.0546875 -0.1953125 8 0 C10 2 10 2 10.25 4.5 C10 7 10 7 8 9 C4.875 9.125 4.875 9.125 2 9 C2 10.32 2 11.64 2 13 C1.34 13 0.68 13 0 13 C0 8.71 0 4.42 0 0 Z " fill="#69B7FF" transform="translate(150,321)"/>
<path d="M0 0 C2.5 0.25 2.5 0.25 4.5 2.25 C4.75 5.25 4.75 5.25 4.5 8.25 C2.5 10.25 2.5 10.25 0 10.5 C-2.5 10.25 -2.5 10.25 -4.5 8.25 C-4.75 5.25 -4.75 5.25 -4.5 2.25 C-2.5 0.25 -2.5 0.25 0 0 Z " fill="#6DB9FF" transform="translate(174.5,323.75)"/>
<path d="M0 0 C0.66 0 1.32 0 2 0 C2.83790789 1.78953185 3.67019396 3.58169695 4.5 5.375 C4.9640625 6.37273437 5.428125 7.37046875 5.90625 8.3984375 C7 11 7 11 7 13 C6.34 13 5.68 13 5 13 C4.67 12.34 4.34 11.68 4 11 C-0.65052872 10.73067479 -0.65052872 10.73067479 -5 12 C-4.42365861 7.24518354 -2.44931479 4.02951788 0 0 Z " fill="#A1D2FF" transform="translate(247,321)"/>
<path d="M0 0 C3.63 0 7.26 0 11 0 C9.86349426 3.40951722 8.74186875 4.37636276 6.0625 6.6875 C5.35222656 7.31011719 4.64195312 7.93273437 3.91015625 8.57421875 C2 10 2 10 0 10 C0 6.7 0 3.4 0 0 Z " fill="#F0F7FF" transform="translate(350,229)"/>
<path d="M0 0 C3.29714793 0.32971479 4.6226839 0.6226839 7 3 C7 3.99 7 4.98 7 6 C4.69 6 2.38 6 0 6 C0 6.66 0 7.32 0 8 C1.98 7.67 3.96 7.34 6 7 C6 7.66 6 8.32 6 9 C0.56559513 10.32841008 0.56559513 10.32841008 -1.9375 8.875 C-3 7 -3 7 -2.8125 4.4375 C-2 2 -2 2 0 0 Z " fill="#83C4FF" transform="translate(279,324)"/>
<path d="M0 0 C2.5 0.25 2.5 0.25 4.5 2.25 C4.5 3.57 4.5 4.89 4.5 6.25 C2.52 6.58 0.54 6.91 -1.5 7.25 C0.15 7.25 1.8 7.25 3.5 7.25 C3.17 8.24 2.84 9.23 2.5 10.25 C0.125 10.4375 0.125 10.4375 -2.5 10.25 C-4.64915785 7.02626323 -4.88286803 5.98296326 -4.5 2.25 C-2.5 0.25 -2.5 0.25 0 0 Z " fill="#6FBAFF" transform="translate(206.5,323.75)"/>
<path d="M0 0 C2.625 0.25 2.625 0.25 4.4375 1.5625 C5.625 3.25 5.625 3.25 5.625 6.25 C3.315 6.58 1.005 6.91 -1.375 7.25 C0.275 7.58 1.925 7.91 3.625 8.25 C3.295 8.91 2.965 9.57 2.625 10.25 C-2.125 9.5 -2.125 9.5 -4.375 7.25 C-3.67467427 0.38680782 -3.67467427 0.38680782 0 0 Z " fill="#84C4FF" transform="translate(297.375,323.75)"/>
<path d="M0 0 C3.2830098 3.2830098 3.19284362 7.50298589 4 12 C0.7 12 -2.6 12 -6 12 C-4.02 8.04 -2.04 4.08 0 0 Z " fill="#E5F2FF" transform="translate(150,243)"/>
<path d="M0 0 C2.7115029 4.06725434 2.57867488 7.1547611 3 12 C0.03 12 -2.94 12 -6 12 C-4.43358249 7.69235185 -2.31663844 3.93828536 0 0 Z " fill="#E4F2FF" transform="translate(289,243)"/>
<path d="M0 0 C2.5 0.25 2.5 0.25 4.5 2.25 C4.5 3.57 4.5 4.89 4.5 6.25 C2.52 6.58 0.54 6.91 -1.5 7.25 C0.15 7.25 1.8 7.25 3.5 7.25 C3.17 8.24 2.84 9.23 2.5 10.25 C-2.25 9.5 -2.25 9.5 -4.5 7.25 C-4.75 4.75 -4.75 4.75 -4.5 2.25 C-2.5 0.25 -2.5 0.25 0 0 Z " fill="#6AB8FF" transform="translate(335.5,323.75)"/>
<path d="M0 0 C2.875 -0.125 2.875 -0.125 6 0 C8 2 8 2 8.1953125 3.9453125 C8.13020833 5.96354167 8.06510417 7.98177083 8 10 C7.34 10 6.68 10 6 10 C6 8.68 6 7.36 6 6 C4.35 6 2.7 6 1 6 C1.33 6.99 1.66 7.98 2 9 C1.01 8.67 0.02 8.34 -1 8 C-0.25 6.0625 -0.25 6.0625 1 4 C3.125 3.25 3.125 3.25 5 3 C3.35 2.67 1.7 2.34 0 2 C0 1.34 0 0.68 0 0 Z " fill="#74BCFF" transform="translate(313,324)"/>
<path d="M0 0 C1.65 0 3.3 0 5 0 C5.33 0.66 5.66 1.32 6 2 C4.35 2 2.7 2 1 2 C1 2.66 1 3.32 1 4 C2.65 4.33 4.3 4.66 6 5 C6 6.32 6 7.64 6 9 C3.69 9.33 1.38 9.66 -1 10 C-1 9.34 -1 8.68 -1 8 C0.65 8 2.3 8 4 8 C4 7.34 4 6.68 4 6 C2.35 5.67 0.7 5.34 -1 5 C-0.67 3.35 -0.34 1.7 0 0 Z " fill="#71BBFF" transform="translate(224,324)"/>
<path d="M0 0 C0.66 0 1.32 0 2 0 C2.66 0.99 3.32 1.98 4 3 C6.05925139 3.72382467 6.05925139 3.72382467 8 4 C8 4.66 8 5.32 8 6 C2.43842552 6.91457003 -1.675665 7.32086397 -7 5 C-7 4.67 -7 4.34 -7 4 C-4.69 4 -2.38 4 0 4 C0 2.68 0 1.36 0 0 Z " fill="#F0F7FF" transform="translate(211,326)"/>
<path d="M0 0 C0.33 0.99 0.66 1.98 1 3 C3.01508358 3.73323796 3.01508358 3.73323796 5 4 C5 4.66 5 5.32 5 6 C3.35 6 1.7 6 0 6 C-0.33 6.66 -0.66 7.32 -1 8 C-1.4125 7.195625 -1.825 6.39125 -2.25 5.5625 C-3.73452331 2.85890282 -3.73452331 2.85890282 -6.1875 2.1875 C-6.785625 2.125625 -7.38375 2.06375 -8 2 C-8 1.34 -8 0.68 -8 0 C-4.71303767 -0.79953138 -3.28976808 -1.09658936 0 0 Z " fill="#EDF6FF" transform="translate(223,326)"/>
<path d="M0 0 C0.78375 0.04125 1.5675 0.0825 2.375 0.125 C2.375 1.115 2.375 2.105 2.375 3.125 C0.725 2.795 -0.925 2.465 -2.625 2.125 C-2.295 3.775 -1.965 5.425 -1.625 7.125 C0.025 7.125 1.675 7.125 3.375 7.125 C3.045 8.115 2.715 9.105 2.375 10.125 C0 10.3125 0 10.3125 -2.625 10.125 C-4.77415785 6.90126323 -5.00786803 5.85796326 -4.625 2.125 C-2.625 0.125 -2.625 0.125 0 0 Z " fill="#6DB9FF" transform="translate(270.625,323.875)"/>
<path d="M0 0 C1.670625 0.061875 1.670625 0.061875 3.375 0.125 C3.375 3.425 3.375 6.725 3.375 10.125 C3.045 10.125 2.715 10.125 2.375 10.125 C2.045 7.815 1.715 5.505 1.375 3.125 C-0.275 3.125 -1.925 3.125 -3.625 3.125 C-3.34882467 5.06574861 -3.34882467 5.06574861 -2.625 7.125 C-1.635 7.785 -0.645 8.445 0.375 9.125 C-1.29111905 9.167721 -2.95882885 9.16563832 -4.625 9.125 C-5.625 8.125 -5.625 8.125 -5.8125 5.1875 C-5.53057824 0.58277796 -4.55609828 0.15710684 0 0 Z " fill="#52ACFF" transform="translate(187.625,323.875)"/>
<path d="M0 0 C0.66 0 1.32 0 2 0 C2 0.66 2 1.32 2 2 C2.99 2 3.98 2 5 2 C5 2.66 5 3.32 5 4 C4.01 4 3.02 4 2 4 C2 5.98 2 7.96 2 10 C2.99 10 3.98 10 5 10 C5 10.66 5 11.32 5 12 C3.68 11.67 2.36 11.34 1 11 C-1.42857143 3.57142857 -1.42857143 3.57142857 0 0 Z " fill="#72BCFF" transform="translate(324,322)"/>
<path d="M0 0 C1.65 0.33 3.3 0.66 5 1 C4.67 2.65 4.34 4.3 4 6 C2.35 5.67 0.7 5.34 -1 5 C-0.67 3.35 -0.34 1.7 0 0 Z " fill="#F1F8FF" transform="translate(345,326)"/>
<path d="M0 0 C0.66 0 1.32 0 2 0 C2 0.99 2 1.98 2 3 C1.01 3.495 1.01 3.495 0 4 C-0.33 4.99 -0.66 5.98 -1 7 C0.32 7.66 1.64 8.32 3 9 C1.02 9 -0.96 9 -3 9 C-3.33 9.99 -3.66 10.98 -4 12 C-5 9 -5 9 -4.00390625 6.73828125 C-3.52824219 5.93777344 -3.05257812 5.13726562 -2.5625 4.3125 C-2.08941406 3.50425781 -1.61632812 2.69601562 -1.12890625 1.86328125 C-0.75636719 1.24839844 -0.38382813 0.63351562 0 0 Z " fill="#5DB1FF" transform="translate(247,321)"/>
<path d="M0 0 C1.65 0 3.3 0 5 0 C5 1.98 5 3.96 5 6 C3.35 5.67 1.7 5.34 0 5 C0 3.35 0 1.7 0 0 Z " fill="#F3F9FF" transform="translate(172,326)"/>
<path d="M0 0 C1.2065625 0.0309375 1.2065625 0.0309375 2.4375 0.0625 C3.0975 1.3825 3.7575 2.7025 4.4375 4.0625 C1.7975 4.0625 -0.8425 4.0625 -3.5625 4.0625 C-3.5625 0.08689024 -3.5625 0.08689024 0 0 Z " fill="#99CEFF" transform="translate(206.5625,323.9375)"/>
<path d="M0 0 C1.98 0 3.96 0 6 0 C5.67 1.65 5.34 3.3 5 5 C3.35 5 1.7 5 0 5 C0 3.35 0 1.7 0 0 Z " fill="#F4F9FF" transform="translate(152,323)"/>
<path d="M0 0 C1.2065625 0.0309375 1.2065625 0.0309375 2.4375 0.0625 C2.4375 1.7125 2.4375 3.3625 2.4375 5.0625 C0.7875 5.0625 -0.8625 5.0625 -2.5625 5.0625 C-3.125 3.125 -3.125 3.125 -3.5625 1.0625 C-2.5625 0.0625 -2.5625 0.0625 0 0 Z " fill="#F0F8FF" transform="translate(186.5625,325.9375)"/>
<path d="M0 0 C1.65 0 3.3 0 5 0 C5 0.66 5 1.32 5 2 C4.01 2.495 4.01 2.495 3 3 C2.59270772 5.32156597 2.25561323 7.6568787 2 10 C1.34 10 0.68 10 0 10 C0 6.7 0 3.4 0 0 Z " fill="#65B5FF" transform="translate(195,324)"/>
<path d="M0 0 C1.65 0 3.3 0 5 0 C5 0.66 5 1.32 5 2 C4.01 2.495 4.01 2.495 3 3 C2.59270772 5.32156597 2.25561323 7.6568787 2 10 C1.34 10 0.68 10 0 10 C0 6.7 0 3.4 0 0 Z " fill="#71BBFF" transform="translate(305,324)"/>
<path d="M0 0 C1.65 0 3.3 0 5 0 C5 0.66 5 1.32 5 2 C4.01 2.495 4.01 2.495 3 3 C2.59270772 5.32156597 2.25561323 7.6568787 2 10 C1.34 10 0.68 10 0 10 C0 6.7 0 3.4 0 0 Z " fill="#6DB9FF" transform="translate(163,324)"/>
<path d="M0 0 C2.375 -0.1875 2.375 -0.1875 5 0 C5.66 0.99 6.32 1.98 7 3 C6 4 6 4 2.9375 4.0625 C1.4834375 4.0315625 1.4834375 4.0315625 0 4 C0 2.68 0 1.36 0 0 Z " fill="#A6D4FF" transform="translate(333,324)"/>
<path d="M0 0 C1.65 0 3.3 0 5 0 C4.67 1.32 4.34 2.64 4 4 C2.68 3.67 1.36 3.34 0 3 C0 2.01 0 1.02 0 0 Z " fill="#BBDEFF" transform="translate(314,330)"/>
</svg>
